HIERARCHY
ROOT Hips
{
	OFFSET -0.001795 -0.223333 0.028219
	CHANNELS 6 Xposition Yposition Zposition Zrotation Yrotation Xrotation 
	JOINT LeftUpLeg
	{
		OFFSET 0.069520 -0.091406 -0.006815
		CHANNELS 3 Zrotation Yrotation Xrotation
		JOINT LeftLeg
		{
			OFFSET 0.034277 -0.375199 -0.004496
			CHANNELS 3 Zrotation Yrotation Xrotation
			JOINT LeftFoot
			{
				OFFSET -0.013596 -0.397961 -0.043693
				CHANNELS 3 Zrotation Yrotation Xrotation
				JOINT LeftToe
				{
					OFFSET 0.026358 -0.055791 0.119288
					CHANNELS 3 Zrotation Yrotation Xrotation
					End Site
					{
						OFFSET 0.000000 0.000000 0.000000
					}
				}
			}
		}
	}
	JOINT RightUpLeg
	{
		OFFSET -0.067670 -0.090522 -0.004320
		CHANNELS 3 Zrotation Yrotation Xrotation
		JOINT RightLeg
		{
			OFFSET -0.038290 -0.382569 -0.008850
			CHANNELS 3 Zrotation Yrotation Xrotation
			JOINT RightFoot
			{
				OFFSET 0.015774 -0.398415 -0.042312
				CHANNELS 3 Zrotation Yrotation Xrotation
				JOINT RightToe
				{
					OFFSET -0.025372 -0.048144 0.123348
					CHANNELS 3 Zrotation Yrotation Xrotation
					End Site
					{
						OFFSET 0.000000 0.000000 0.000000
					}
				}
			}
		}
	}
	JOINT Spine
	{
		OFFSET -0.002533 0.108963 -0.026696
		CHANNELS 3 Zrotation Yrotation Xrotation
		JOINT Spine1
		{
			OFFSET 0.005487 0.135180 0.001092
			CHANNELS 3 Zrotation Yrotation Xrotation
			JOINT Spine2
			{
				OFFSET 0.001457 0.052922 0.025425
				CHANNELS 3 Zrotation Yrotation Xrotation
				JOINT Neck
				{
					OFFSET -0.002778 0.213870 -0.042857
					CHANNELS 3 Zrotation Yrotation Xrotation
					JOINT Head
					{
						OFFSET 0.005152 0.064970 0.051349
						CHANNELS 3 Zrotation Yrotation Xrotation
						End Site
						{
							OFFSET 0.000000 0.000000 0.000000
						}
					}
				}
				JOINT LeftShoulder
				{
					OFFSET 0.078845 0.121749 -0.034090
					CHANNELS 3 Zrotation Yrotation Xrotation
					JOINT LeftArm
					{
						OFFSET 0.090977 0.030469 -0.008868
						CHANNELS 3 Zrotation Yrotation Xrotation
						JOINT LeftForeArm
						{
							OFFSET 0.259612 -0.012772 -0.027456
							CHANNELS 3 Zrotation Yrotation Xrotation
							JOINT LeftHand
							{
								OFFSET 0.249234 0.008986 -0.001171
								CHANNELS 3 Zrotation Yrotation Xrotation
								End Site
								{
									OFFSET 0.000000 0.000000 0.000000
								}
							}
						}
					}
				}
				JOINT RightShoulder
				{
					OFFSET -0.081759 0.118833 -0.038615
					CHANNELS 3 Zrotation Yrotation Xrotation
					JOINT RightArm
					{
						OFFSET -0.096012 0.032551 -0.009143
						CHANNELS 3 Zrotation Yrotation Xrotation
						JOINT RightForeArm
						{
							OFFSET -0.253742 -0.013329 -0.021401
							CHANNELS 3 Zrotation Yrotation Xrotation
							JOINT RightHand
							{
								OFFSET -0.255298 0.007772 -0.005559
								CHANNELS 3 Zrotation Yrotation Xrotation
								End Site
								{
									OFFSET 0.000000 0.000000 0.000000
								}
							}
						}
					}
				}
			}
		}
	}
}
MOTION
Frames: 11
Frame Time: 0.050000
-2.845285 0.932356 0.943745 178.222481 -10.969776 174.853831 4.537627 16.670872 20.729426 13.331400 24.831446 25.523399 -50.086961 14.243724 12.391234 0.000000 0.000000 0.000000 3.107061 3.617333 -15.923398 5.305238 9.254663 5.258398 -82.872272 64.371074 25.794718 0.000000 0.000000 0.000000 6.993880 1.424130 14.769240 -6.607062 -0.551889 -29.475291 -5.588637 -1.416911 34.657525 27.254921 36.528372 -23.036093 0.000000 0.000000 0.000000 -0.081180 23.553205 95.041909 72.589664 -70.289494 -46.318283 30.217543 8.678556 1.050510 0.000000 0.000000 0.000000 -11.258202 -28.109698 173.881050 -100.677440 14.894600 4.698555 3.484425 -31.858627 -6.677502 0.000000 0.000000 0.000000 
-2.848339 0.936722 0.897738 178.841058 -7.702320 174.406941 4.682597 13.539813 14.387591 41.082656 36.305360 51.513030 -56.098247 19.034158 33.761673 0.000000 0.000000 0.000000 5.280641 2.311375 -13.158639 5.451662 9.984175 6.583419 -103.981951 65.647220 7.689585 0.000000 0.000000 0.000000 7.440219 1.373506 14.433036 -6.330358 -0.326114 -28.497757 -3.587524 -0.666565 32.519663 27.253004 37.572845 -21.847478 0.000000 0.000000 0.000000 2.176010 23.095883 106.248246 84.187473 -64.290190 -51.731717 28.603602 11.472943 0.945342 0.000000 0.000000 0.000000 -13.717706 -29.856506 169.130377 -101.688650 20.380389 -6.343810 -3.916956 -31.879444 -4.490695 0.000000 0.000000 0.000000 
-2.849205 0.939538 0.856406 179.138178 -4.531156 173.256477 5.792718 12.562405 8.665192 74.807809 34.946519 77.182827 -51.374984 25.442955 53.900494 0.000000 0.000000 0.000000 6.968472 1.280093 -9.333986 4.859494 10.059120 7.095662 -122.220028 63.799878 -8.009201 0.000000 0.000000 0.000000 7.381007 1.648891 15.058637 -5.126246 -0.123630 -28.439042 -3.629086 -0.344894 33.477685 33.694115 45.045011 -18.720184 0.000000 0.000000 0.000000 7.184685 23.084713 124.511610 93.361859 -50.174313 -44.230355 26.750431 18.640025 1.604600 0.000000 0.000000 0.000000 -7.986168 -34.337979 145.505313 -97.878645 37.842833 -24.653052 -18.339980 -27.268862 -0.172965 0.000000 0.000000 0.000000 
-2.848464 0.943310 0.819004 179.156620 0.772469 172.515519 3.092961 -9.944221 5.905685 -65.555075 -29.389894 51.208296 22.351503 -0.781826 67.233211 0.000000 0.000000 0.000000 8.144201 -2.719894 -5.746667 -1.880425 -14.248993 8.282036 62.953650 -21.154960 -14.436919 0.000000 0.000000 0.000000 5.484290 -4.167288 15.651049 -4.460736 -1.697673 -28.680305 0.950441 9.217602 33.218754 18.049934 -19.956743 -28.546953 0.000000 0.000000 0.000000 10.984567 20.358009 140.159193 94.395477 -38.450921 -24.093040 19.633616 29.491005 -0.720519 0.000000 0.000000 0.000000 -3.230128 -36.999501 130.104433 -94.941850 47.210409 -42.538191 -28.648792 -16.871638 2.486379 0.000000 0.000000 0.000000 
-2.846757 0.947759 0.784786 178.520891 6.258461 171.776514 3.910637 -6.771687 0.314647 -64.313668 -27.698440 55.227772 33.570828 -9.564507 70.727602 0.000000 0.000000 0.000000 7.831127 -2.328190 -2.129719 -1.643166 -12.964137 7.672805 64.184235 -19.081187 -12.321027 0.000000 0.000000 0.000000 4.730358 -3.943840 15.883474 -3.928634 -1.268259 -27.855927 0.902077 11.499329 32.585380 19.434150 -20.115823 -26.775807 0.000000 0.000000 0.000000 17.839003 13.013430 171.303586 96.373384 -11.618397 5.547543 -0.327187 38.537167 -7.117778 0.000000 0.000000 0.000000 5.200150 -38.260764 104.687137 -84.425808 64.022415 -53.967066 -34.506512 -2.577962 -0.107819 0.000000 0.000000 0.000000 
-2.844292 0.951219 0.753059 178.182180 11.113203 171.560783 3.571555 -4.861270 -3.602594 -45.596624 -25.397867 50.286803 48.563266 -22.735784 62.074096 0.000000 0.000000 0.000000 7.285702 -2.674395 1.484774 -0.734224 -11.110724 5.528069 64.049664 -17.495655 -9.565634 0.000000 0.000000 0.000000 4.491976 -3.923651 16.101560 -4.111483 -1.062361 -28.465768 1.599235 12.794013 33.410092 20.037393 -14.834346 -28.103124 0.000000 0.000000 0.000000 19.112322 3.662996 -161.399110 94.317757 15.358306 32.569686 -22.869667 34.693471 -14.762703 0.000000 0.000000 0.000000 11.469606 -37.355907 85.565442 -62.757565 75.055312 -46.590248 -35.738109 8.740290 -2.899130 0.000000 0.000000 0.000000 
-2.841586 0.953521 0.722667 177.738406 15.644258 171.703888 3.216840 -3.812764 -7.341274 -26.347440 -22.089422 42.126631 51.198504 -20.962275 46.519050 0.000000 0.000000 0.000000 6.747394 -3.108486 3.707530 -1.028033 -9.436712 4.800869 64.170658 -15.650751 -6.920285 0.000000 0.000000 0.000000 4.212366 -3.520073 15.664102 -4.051287 -0.839577 -27.916781 1.140161 13.580584 32.796861 20.522707 -12.485404 -27.452087 0.000000 0.000000 0.000000 16.748922 -4.932883 -133.726956 87.375789 44.198413 51.877598 -34.999559 22.011739 -14.434155 0.000000 0.000000 0.000000 16.391515 -35.382586 68.787166 -4.617155 79.276802 -1.475564 -35.424252 20.214229 -5.704363 0.000000 0.000000 0.000000 
-2.838468 0.954265 0.692676 177.505421 20.615577 171.552193 2.894806 -3.263012 -9.175058 -10.448784 -15.804259 30.946602 48.189305 -18.410566 32.718317 0.000000 0.000000 0.000000 6.348715 -3.851261 6.650856 -1.659700 -7.034147 3.168590 64.070310 -13.750867 -4.223256 0.000000 0.000000 0.000000 4.013189 -3.645790 16.093716 -4.148315 -0.604100 -28.989280 1.732033 14.780120 33.842970 20.415096 -9.108340 -27.822571 0.000000 0.000000 0.000000 11.968390 -9.927277 -112.672010 70.639277 64.501880 53.218819 -37.942626 10.206034 -10.408714 0.000000 0.000000 0.000000 19.817687 -33.550872 56.986916 31.479206 75.261077 25.540195 -33.822851 27.677819 -6.851835 0.000000 0.000000 0.000000 
-2.835080 0.952784 0.662800 176.800465 25.107394 171.671475 2.387417 -2.871672 -10.668228 -1.662458 -9.207775 20.799013 35.595129 -14.691043 22.434918 0.000000 0.000000 0.000000 5.680825 -4.311976 8.031086 -3.372067 -5.272403 3.184042 65.427916 -11.265986 -2.509887 0.000000 0.000000 0.000000 3.691903 -3.274388 15.670671 -4.253157 -0.453228 -28.918744 1.630641 14.991040 33.876135 19.997115 -6.038556 -28.129108 0.000000 0.000000 0.000000 6.545034 -12.498747 -94.996819 20.954344 74.038166 17.897220 -37.076673 0.316793 -6.416938 0.000000 0.000000 0.000000 22.119895 -30.757982 49.910543 42.048173 69.939326 28.750228 -31.725175 32.992328 -7.468602 0.000000 0.000000 0.000000 
-2.831100 0.950096 0.632400 176.561870 29.863404 171.214184 2.785531 -2.849194 -11.567675 0.106040 -5.437132 13.749511 24.528778 -12.084985 17.259762 0.000000 0.000000 0.000000 4.554996 -5.253135 10.189948 -4.379995 -4.076092 3.083581 66.976970 -8.527095 0.505026 0.000000 0.000000 0.000000 3.574348 -3.431319 16.114501 -3.849741 -0.064044 -29.105734 1.927078 16.476323 33.598763 19.358751 -4.025305 -27.962698 0.000000 0.000000 0.000000 2.514963 -13.869564 -81.181031 -21.164342 68.116026 -14.451493 -35.292212 -5.451558 -4.094126 0.000000 0.000000 0.000000 23.126740 -29.325018 41.894174 52.865322 63.314928 32.903887 -27.193735 37.174615 -6.624129 0.000000 0.000000 0.000000 
-2.825724 0.946908 0.601275 176.119970 33.091973 170.813902 2.239571 -2.627920 -12.284358 1.044733 -3.087486 5.436238 10.314399 -10.176173 19.734973 0.000000 0.000000 0.000000 3.074446 -6.216328 11.743912 -5.418654 -3.522784 3.706279 69.444967 -6.444058 2.736247 0.000000 0.000000 0.000000 2.789305 -3.355046 16.281856 -3.088179 0.405770 -28.710910 1.504177 15.886645 32.808686 19.088089 -0.929917 -29.324206 0.000000 0.000000 0.000000 -0.513796 -14.335997 -70.226194 -38.117880 59.202318 -23.849628 -31.689191 -11.156042 -2.433657 0.000000 0.000000 0.000000 23.311506 -27.162855 37.340104 56.376900 59.049929 32.069824 -23.342732 37.900589 -5.599805 0.000000 0.000000 0.000000 
